<mxfile host="app.diagrams.net" modified="2024-03-20T18:14:31.269Z" agent="Mozilla/5.0 (Windows NT 10.0; Win64; x64) AppleWebKit/537.36 (KHTML, like Gecko) Chrome/122.0.0.0 Safari/537.36" etag="s5s7wikDpuE-ghE7cmz0" version="24.0.7" type="device">
  <diagram id="R2lEEEUBdFMjLlhIrx00" name="Page-1">
    <mxGraphModel dx="1644" dy="446" grid="1" gridSize="10" guides="1" tooltips="1" connect="1" arrows="1" fold="1" page="1" pageScale="1" pageWidth="850" pageHeight="1100" math="0" shadow="0" extFonts="Permanent Marker^https://fonts.googleapis.com/css?family=Permanent+Marker">
      <root>
        <mxCell id="0" />
        <mxCell id="1" parent="0" />
        <mxCell id="UTXrpBa6boiH1DBe2FLI-4" style="edgeStyle=orthogonalEdgeStyle;rounded=0;orthogonalLoop=1;jettySize=auto;html=1;exitX=1;exitY=0.5;exitDx=0;exitDy=0;entryX=0;entryY=0.5;entryDx=0;entryDy=0;fillColor=#fa6800;strokeColor=#C73500;" parent="1" source="UTXrpBa6boiH1DBe2FLI-1" target="UTXrpBa6boiH1DBe2FLI-3" edge="1">
          <mxGeometry relative="1" as="geometry">
            <mxPoint x="320" y="100" as="targetPoint" />
          </mxGeometry>
        </mxCell>
        <mxCell id="UTXrpBa6boiH1DBe2FLI-37" value="(1,N)" style="edgeLabel;html=1;align=center;verticalAlign=middle;resizable=0;points=[];" parent="UTXrpBa6boiH1DBe2FLI-4" vertex="1" connectable="0">
          <mxGeometry x="-0.1884" y="1" relative="1" as="geometry">
            <mxPoint as="offset" />
          </mxGeometry>
        </mxCell>
        <mxCell id="UTXrpBa6boiH1DBe2FLI-1" value="Player" style="whiteSpace=wrap;html=1;align=center;" parent="1" vertex="1">
          <mxGeometry x="110" y="80" width="100" height="40" as="geometry" />
        </mxCell>
        <mxCell id="UTXrpBa6boiH1DBe2FLI-2" value="Soccer team" style="whiteSpace=wrap;html=1;align=center;" parent="1" vertex="1">
          <mxGeometry x="580" y="80" width="100" height="40" as="geometry" />
        </mxCell>
        <mxCell id="UTXrpBa6boiH1DBe2FLI-5" style="edgeStyle=orthogonalEdgeStyle;rounded=0;orthogonalLoop=1;jettySize=auto;html=1;exitX=1;exitY=0.5;exitDx=0;exitDy=0;entryX=0;entryY=0.5;entryDx=0;entryDy=0;fillColor=#fa6800;strokeColor=#C73500;" parent="1" source="UTXrpBa6boiH1DBe2FLI-3" target="UTXrpBa6boiH1DBe2FLI-2" edge="1">
          <mxGeometry relative="1" as="geometry" />
        </mxCell>
        <mxCell id="UTXrpBa6boiH1DBe2FLI-39" value="(1,N)" style="edgeLabel;html=1;align=center;verticalAlign=middle;resizable=0;points=[];" parent="UTXrpBa6boiH1DBe2FLI-5" vertex="1" connectable="0">
          <mxGeometry x="0.0321" y="-1" relative="1" as="geometry">
            <mxPoint as="offset" />
          </mxGeometry>
        </mxCell>
        <mxCell id="UTXrpBa6boiH1DBe2FLI-3" value="Belong to" style="shape=rhombus;perimeter=rhombusPerimeter;whiteSpace=wrap;html=1;align=center;fillColor=#cce5ff;strokeColor=#36393d;" parent="1" vertex="1">
          <mxGeometry x="325" y="70" width="120" height="60" as="geometry" />
        </mxCell>
        <mxCell id="UTXrpBa6boiH1DBe2FLI-6" style="edgeStyle=orthogonalEdgeStyle;rounded=0;orthogonalLoop=1;jettySize=auto;html=1;exitX=1;exitY=0.5;exitDx=0;exitDy=0;entryX=0;entryY=0.5;entryDx=0;entryDy=0;" parent="1" source="UTXrpBa6boiH1DBe2FLI-7" target="UTXrpBa6boiH1DBe2FLI-10" edge="1">
          <mxGeometry relative="1" as="geometry">
            <mxPoint x="860" y="1060" as="targetPoint" />
          </mxGeometry>
        </mxCell>
        <mxCell id="UTXrpBa6boiH1DBe2FLI-7" value="People" style="whiteSpace=wrap;html=1;align=center;" parent="1" vertex="1">
          <mxGeometry x="720" y="1040" width="100" height="40" as="geometry" />
        </mxCell>
        <mxCell id="UTXrpBa6boiH1DBe2FLI-8" value="Car" style="whiteSpace=wrap;html=1;align=center;" parent="1" vertex="1">
          <mxGeometry x="1030" y="1040" width="100" height="40" as="geometry" />
        </mxCell>
        <mxCell id="UTXrpBa6boiH1DBe2FLI-9" style="edgeStyle=orthogonalEdgeStyle;rounded=0;orthogonalLoop=1;jettySize=auto;html=1;exitX=1;exitY=0.5;exitDx=0;exitDy=0;entryX=0;entryY=0.5;entryDx=0;entryDy=0;" parent="1" source="UTXrpBa6boiH1DBe2FLI-10" target="UTXrpBa6boiH1DBe2FLI-8" edge="1">
          <mxGeometry relative="1" as="geometry" />
        </mxCell>
        <mxCell id="UTXrpBa6boiH1DBe2FLI-10" value="Have" style="shape=rhombus;perimeter=rhombusPerimeter;whiteSpace=wrap;html=1;align=center;" parent="1" vertex="1">
          <mxGeometry x="865" y="1030" width="120" height="60" as="geometry" />
        </mxCell>
        <mxCell id="UTXrpBa6boiH1DBe2FLI-12" style="edgeStyle=orthogonalEdgeStyle;rounded=0;orthogonalLoop=1;jettySize=auto;html=1;exitX=1;exitY=0.5;exitDx=0;exitDy=0;entryX=0;entryY=0.5;entryDx=0;entryDy=0;" parent="1" source="UTXrpBa6boiH1DBe2FLI-13" target="UTXrpBa6boiH1DBe2FLI-16" edge="1">
          <mxGeometry relative="1" as="geometry">
            <mxPoint x="860" y="1170" as="targetPoint" />
          </mxGeometry>
        </mxCell>
        <mxCell id="UTXrpBa6boiH1DBe2FLI-13" value="Driver" style="whiteSpace=wrap;html=1;align=center;" parent="1" vertex="1">
          <mxGeometry x="720" y="1150" width="100" height="40" as="geometry" />
        </mxCell>
        <mxCell id="UTXrpBa6boiH1DBe2FLI-14" value="Taxi" style="whiteSpace=wrap;html=1;align=center;" parent="1" vertex="1">
          <mxGeometry x="1030" y="1150" width="100" height="40" as="geometry" />
        </mxCell>
        <mxCell id="UTXrpBa6boiH1DBe2FLI-15" style="edgeStyle=orthogonalEdgeStyle;rounded=0;orthogonalLoop=1;jettySize=auto;html=1;exitX=1;exitY=0.5;exitDx=0;exitDy=0;entryX=0;entryY=0.5;entryDx=0;entryDy=0;" parent="1" source="UTXrpBa6boiH1DBe2FLI-16" target="UTXrpBa6boiH1DBe2FLI-14" edge="1">
          <mxGeometry relative="1" as="geometry" />
        </mxCell>
        <mxCell id="UTXrpBa6boiH1DBe2FLI-16" value="Drive" style="shape=rhombus;perimeter=rhombusPerimeter;whiteSpace=wrap;html=1;align=center;" parent="1" vertex="1">
          <mxGeometry x="865" y="1140" width="120" height="60" as="geometry" />
        </mxCell>
        <mxCell id="UTXrpBa6boiH1DBe2FLI-17" style="edgeStyle=orthogonalEdgeStyle;rounded=0;orthogonalLoop=1;jettySize=auto;html=1;exitX=1;exitY=0.5;exitDx=0;exitDy=0;entryX=0;entryY=0.5;entryDx=0;entryDy=0;" parent="1" source="UTXrpBa6boiH1DBe2FLI-18" target="UTXrpBa6boiH1DBe2FLI-21" edge="1">
          <mxGeometry relative="1" as="geometry">
            <mxPoint x="860" y="1280" as="targetPoint" />
          </mxGeometry>
        </mxCell>
        <mxCell id="UTXrpBa6boiH1DBe2FLI-18" value="Client" style="whiteSpace=wrap;html=1;align=center;" parent="1" vertex="1">
          <mxGeometry x="720" y="1260" width="100" height="40" as="geometry" />
        </mxCell>
        <mxCell id="UTXrpBa6boiH1DBe2FLI-19" value="Car" style="whiteSpace=wrap;html=1;align=center;" parent="1" vertex="1">
          <mxGeometry x="1030" y="1260" width="100" height="40" as="geometry" />
        </mxCell>
        <mxCell id="UTXrpBa6boiH1DBe2FLI-20" style="edgeStyle=orthogonalEdgeStyle;rounded=0;orthogonalLoop=1;jettySize=auto;html=1;exitX=1;exitY=0.5;exitDx=0;exitDy=0;entryX=0;entryY=0.5;entryDx=0;entryDy=0;" parent="1" source="UTXrpBa6boiH1DBe2FLI-21" target="UTXrpBa6boiH1DBe2FLI-19" edge="1">
          <mxGeometry relative="1" as="geometry" />
        </mxCell>
        <mxCell id="UTXrpBa6boiH1DBe2FLI-21" value="Rent" style="shape=rhombus;perimeter=rhombusPerimeter;whiteSpace=wrap;html=1;align=center;" parent="1" vertex="1">
          <mxGeometry x="865" y="1250" width="120" height="60" as="geometry" />
        </mxCell>
        <mxCell id="UTXrpBa6boiH1DBe2FLI-22" style="edgeStyle=orthogonalEdgeStyle;rounded=0;orthogonalLoop=1;jettySize=auto;html=1;exitX=1;exitY=0.5;exitDx=0;exitDy=0;entryX=0;entryY=0.5;entryDx=0;entryDy=0;fillColor=#ffe6cc;strokeColor=#d79b00;" parent="1" source="UTXrpBa6boiH1DBe2FLI-23" target="UTXrpBa6boiH1DBe2FLI-26" edge="1">
          <mxGeometry relative="1" as="geometry">
            <mxPoint x="390" y="1060" as="targetPoint" />
          </mxGeometry>
        </mxCell>
        <mxCell id="UTXrpBa6boiH1DBe2FLI-23" value="Person" style="whiteSpace=wrap;html=1;align=center;fillColor=#ffe6cc;strokeColor=#d79b00;" parent="1" vertex="1">
          <mxGeometry x="250" y="1040" width="100" height="40" as="geometry" />
        </mxCell>
        <mxCell id="UTXrpBa6boiH1DBe2FLI-24" value="AFP account" style="whiteSpace=wrap;html=1;align=center;fillColor=#ffe6cc;strokeColor=#d79b00;" parent="1" vertex="1">
          <mxGeometry x="560" y="1040" width="100" height="40" as="geometry" />
        </mxCell>
        <mxCell id="UTXrpBa6boiH1DBe2FLI-25" style="edgeStyle=orthogonalEdgeStyle;rounded=0;orthogonalLoop=1;jettySize=auto;html=1;exitX=1;exitY=0.5;exitDx=0;exitDy=0;entryX=0;entryY=0.5;entryDx=0;entryDy=0;fillColor=#ffe6cc;strokeColor=#d79b00;" parent="1" source="UTXrpBa6boiH1DBe2FLI-26" target="UTXrpBa6boiH1DBe2FLI-24" edge="1">
          <mxGeometry relative="1" as="geometry" />
        </mxCell>
        <mxCell id="UTXrpBa6boiH1DBe2FLI-26" value="Have" style="shape=rhombus;perimeter=rhombusPerimeter;whiteSpace=wrap;html=1;align=center;fillColor=#ffe6cc;strokeColor=#d79b00;" parent="1" vertex="1">
          <mxGeometry x="395" y="1030" width="120" height="60" as="geometry" />
        </mxCell>
        <mxCell id="UTXrpBa6boiH1DBe2FLI-27" style="edgeStyle=orthogonalEdgeStyle;rounded=0;orthogonalLoop=1;jettySize=auto;html=1;exitX=1;exitY=0.5;exitDx=0;exitDy=0;entryX=0;entryY=0.5;entryDx=0;entryDy=0;fillColor=#ffe6cc;strokeColor=#d79b00;" parent="1" source="UTXrpBa6boiH1DBe2FLI-28" target="UTXrpBa6boiH1DBe2FLI-31" edge="1">
          <mxGeometry relative="1" as="geometry">
            <mxPoint x="390" y="1280" as="targetPoint" />
          </mxGeometry>
        </mxCell>
        <mxCell id="UTXrpBa6boiH1DBe2FLI-28" value="Student" style="whiteSpace=wrap;html=1;align=center;fillColor=#ffe6cc;strokeColor=#d79b00;" parent="1" vertex="1">
          <mxGeometry x="250" y="1260" width="100" height="40" as="geometry" />
        </mxCell>
        <mxCell id="UTXrpBa6boiH1DBe2FLI-29" value="Library" style="whiteSpace=wrap;html=1;align=center;fillColor=#ffe6cc;strokeColor=#d79b00;" parent="1" vertex="1">
          <mxGeometry x="560" y="1260" width="100" height="40" as="geometry" />
        </mxCell>
        <mxCell id="UTXrpBa6boiH1DBe2FLI-30" style="edgeStyle=orthogonalEdgeStyle;rounded=0;orthogonalLoop=1;jettySize=auto;html=1;exitX=1;exitY=0.5;exitDx=0;exitDy=0;entryX=0;entryY=0.5;entryDx=0;entryDy=0;fillColor=#ffe6cc;strokeColor=#d79b00;" parent="1" source="UTXrpBa6boiH1DBe2FLI-31" target="UTXrpBa6boiH1DBe2FLI-29" edge="1">
          <mxGeometry relative="1" as="geometry" />
        </mxCell>
        <mxCell id="UTXrpBa6boiH1DBe2FLI-31" value="Use" style="shape=rhombus;perimeter=rhombusPerimeter;whiteSpace=wrap;html=1;align=center;fillColor=#ffe6cc;strokeColor=#d79b00;" parent="1" vertex="1">
          <mxGeometry x="395" y="1250" width="120" height="60" as="geometry" />
        </mxCell>
        <mxCell id="UTXrpBa6boiH1DBe2FLI-32" style="edgeStyle=orthogonalEdgeStyle;rounded=0;orthogonalLoop=1;jettySize=auto;html=1;exitX=1;exitY=0.5;exitDx=0;exitDy=0;entryX=0;entryY=0.5;entryDx=0;entryDy=0;fillColor=#ffe6cc;strokeColor=#d79b00;" parent="1" source="UTXrpBa6boiH1DBe2FLI-33" target="UTXrpBa6boiH1DBe2FLI-36" edge="1">
          <mxGeometry relative="1" as="geometry">
            <mxPoint x="390" y="1170" as="targetPoint" />
          </mxGeometry>
        </mxCell>
        <mxCell id="UTXrpBa6boiH1DBe2FLI-33" value="Student" style="whiteSpace=wrap;html=1;align=center;fillColor=#ffe6cc;strokeColor=#d79b00;" parent="1" vertex="1">
          <mxGeometry x="250" y="1150" width="100" height="40" as="geometry" />
        </mxCell>
        <mxCell id="UTXrpBa6boiH1DBe2FLI-34" value="Books" style="whiteSpace=wrap;html=1;align=center;fillColor=#ffe6cc;strokeColor=#d79b00;" parent="1" vertex="1">
          <mxGeometry x="560" y="1150" width="100" height="40" as="geometry" />
        </mxCell>
        <mxCell id="UTXrpBa6boiH1DBe2FLI-35" style="edgeStyle=orthogonalEdgeStyle;rounded=0;orthogonalLoop=1;jettySize=auto;html=1;exitX=1;exitY=0.5;exitDx=0;exitDy=0;entryX=0;entryY=0.5;entryDx=0;entryDy=0;fillColor=#ffe6cc;strokeColor=#d79b00;" parent="1" source="UTXrpBa6boiH1DBe2FLI-36" target="UTXrpBa6boiH1DBe2FLI-34" edge="1">
          <mxGeometry relative="1" as="geometry" />
        </mxCell>
        <mxCell id="UTXrpBa6boiH1DBe2FLI-36" value="Have" style="shape=rhombus;perimeter=rhombusPerimeter;whiteSpace=wrap;html=1;align=center;fillColor=#ffe6cc;strokeColor=#d79b00;" parent="1" vertex="1">
          <mxGeometry x="395" y="1140" width="120" height="60" as="geometry" />
        </mxCell>
        <mxCell id="UTXrpBa6boiH1DBe2FLI-38" value="(N,N)" style="text;html=1;align=center;verticalAlign=middle;whiteSpace=wrap;rounded=0;" parent="1" vertex="1">
          <mxGeometry x="355" y="140" width="60" height="30" as="geometry" />
        </mxCell>
        <mxCell id="UTXrpBa6boiH1DBe2FLI-40" style="edgeStyle=orthogonalEdgeStyle;rounded=0;orthogonalLoop=1;jettySize=auto;html=1;exitX=1;exitY=0.5;exitDx=0;exitDy=0;entryX=0;entryY=0.5;entryDx=0;entryDy=0;fillColor=#fa6800;strokeColor=#C73500;" parent="1" source="UTXrpBa6boiH1DBe2FLI-42" target="UTXrpBa6boiH1DBe2FLI-46" edge="1">
          <mxGeometry relative="1" as="geometry">
            <mxPoint x="320" y="340" as="targetPoint" />
          </mxGeometry>
        </mxCell>
        <mxCell id="UTXrpBa6boiH1DBe2FLI-41" value="(1,1)" style="edgeLabel;html=1;align=center;verticalAlign=middle;resizable=0;points=[];" parent="UTXrpBa6boiH1DBe2FLI-40" vertex="1" connectable="0">
          <mxGeometry x="-0.1884" y="1" relative="1" as="geometry">
            <mxPoint as="offset" />
          </mxGeometry>
        </mxCell>
        <mxCell id="UTXrpBa6boiH1DBe2FLI-42" value="Candidato" style="whiteSpace=wrap;html=1;align=center;" parent="1" vertex="1">
          <mxGeometry x="110" y="320" width="100" height="40" as="geometry" />
        </mxCell>
        <mxCell id="UTXrpBa6boiH1DBe2FLI-43" value="Elección" style="whiteSpace=wrap;html=1;align=center;" parent="1" vertex="1">
          <mxGeometry x="580" y="320" width="100" height="40" as="geometry" />
        </mxCell>
        <mxCell id="UTXrpBa6boiH1DBe2FLI-44" style="edgeStyle=orthogonalEdgeStyle;rounded=0;orthogonalLoop=1;jettySize=auto;html=1;exitX=1;exitY=0.5;exitDx=0;exitDy=0;entryX=0;entryY=0.5;entryDx=0;entryDy=0;fillColor=#fa6800;strokeColor=#C73500;" parent="1" source="UTXrpBa6boiH1DBe2FLI-46" target="UTXrpBa6boiH1DBe2FLI-43" edge="1">
          <mxGeometry relative="1" as="geometry" />
        </mxCell>
        <mxCell id="UTXrpBa6boiH1DBe2FLI-45" value="(1,M)" style="edgeLabel;html=1;align=center;verticalAlign=middle;resizable=0;points=[];" parent="UTXrpBa6boiH1DBe2FLI-44" vertex="1" connectable="0">
          <mxGeometry x="0.0321" y="-1" relative="1" as="geometry">
            <mxPoint as="offset" />
          </mxGeometry>
        </mxCell>
        <mxCell id="UTXrpBa6boiH1DBe2FLI-46" value="Participa" style="shape=rhombus;perimeter=rhombusPerimeter;whiteSpace=wrap;html=1;align=center;fillColor=#cce5ff;strokeColor=#36393d;" parent="1" vertex="1">
          <mxGeometry x="325" y="310" width="120" height="60" as="geometry" />
        </mxCell>
        <mxCell id="UTXrpBa6boiH1DBe2FLI-47" value="(N,1)" style="text;html=1;align=center;verticalAlign=middle;whiteSpace=wrap;rounded=0;" parent="1" vertex="1">
          <mxGeometry x="355" y="380" width="60" height="30" as="geometry" />
        </mxCell>
        <mxCell id="UTXrpBa6boiH1DBe2FLI-61" style="edgeStyle=orthogonalEdgeStyle;rounded=0;orthogonalLoop=1;jettySize=auto;html=1;exitX=1;exitY=0.5;exitDx=0;exitDy=0;entryX=0.5;entryY=1;entryDx=0;entryDy=0;" parent="1" source="UTXrpBa6boiH1DBe2FLI-54" target="UTXrpBa6boiH1DBe2FLI-59" edge="1">
          <mxGeometry relative="1" as="geometry" />
        </mxCell>
        <mxCell id="UTXrpBa6boiH1DBe2FLI-54" value="Trabaja" style="shape=rhombus;perimeter=rhombusPerimeter;whiteSpace=wrap;html=1;align=center;fillColor=#cce5ff;strokeColor=#36393d;" parent="1" vertex="1">
          <mxGeometry x="240" y="640" width="120" height="60" as="geometry" />
        </mxCell>
        <mxCell id="UTXrpBa6boiH1DBe2FLI-82" style="edgeStyle=orthogonalEdgeStyle;rounded=0;orthogonalLoop=1;jettySize=auto;html=1;exitX=0.5;exitY=1;exitDx=0;exitDy=0;entryX=0.5;entryY=0;entryDx=0;entryDy=0;" parent="1" source="UTXrpBa6boiH1DBe2FLI-56" target="UTXrpBa6boiH1DBe2FLI-71" edge="1">
          <mxGeometry relative="1" as="geometry" />
        </mxCell>
        <mxCell id="UTXrpBa6boiH1DBe2FLI-83" style="edgeStyle=orthogonalEdgeStyle;rounded=0;orthogonalLoop=1;jettySize=auto;html=1;exitX=0.5;exitY=1;exitDx=0;exitDy=0;entryX=0.5;entryY=0;entryDx=0;entryDy=0;" parent="1" source="UTXrpBa6boiH1DBe2FLI-56" target="UTXrpBa6boiH1DBe2FLI-72" edge="1">
          <mxGeometry relative="1" as="geometry" />
        </mxCell>
        <mxCell id="UTXrpBa6boiH1DBe2FLI-84" style="edgeStyle=orthogonalEdgeStyle;rounded=0;orthogonalLoop=1;jettySize=auto;html=1;exitX=0.5;exitY=1;exitDx=0;exitDy=0;entryX=0.5;entryY=1;entryDx=0;entryDy=0;" parent="1" source="UTXrpBa6boiH1DBe2FLI-56" target="UTXrpBa6boiH1DBe2FLI-70" edge="1">
          <mxGeometry relative="1" as="geometry" />
        </mxCell>
        <mxCell id="UTXrpBa6boiH1DBe2FLI-56" value="Empresa" style="whiteSpace=wrap;html=1;align=center;" parent="1" vertex="1">
          <mxGeometry x="740" y="570" width="100" height="40" as="geometry" />
        </mxCell>
        <mxCell id="UTXrpBa6boiH1DBe2FLI-63" style="edgeStyle=orthogonalEdgeStyle;rounded=0;orthogonalLoop=1;jettySize=auto;html=1;exitX=1;exitY=0.5;exitDx=0;exitDy=0;entryX=0.5;entryY=0;entryDx=0;entryDy=0;" parent="1" source="UTXrpBa6boiH1DBe2FLI-57" target="UTXrpBa6boiH1DBe2FLI-56" edge="1">
          <mxGeometry relative="1" as="geometry" />
        </mxCell>
        <mxCell id="UTXrpBa6boiH1DBe2FLI-57" value="Pertenece" style="shape=rhombus;perimeter=rhombusPerimeter;whiteSpace=wrap;html=1;align=center;fillColor=#cce5ff;strokeColor=#36393d;" parent="1" vertex="1">
          <mxGeometry x="540" y="490" width="120" height="60" as="geometry" />
        </mxCell>
        <mxCell id="UTXrpBa6boiH1DBe2FLI-60" style="edgeStyle=orthogonalEdgeStyle;rounded=0;orthogonalLoop=1;jettySize=auto;html=1;exitX=0.5;exitY=1;exitDx=0;exitDy=0;entryX=0;entryY=0.5;entryDx=0;entryDy=0;" parent="1" source="UTXrpBa6boiH1DBe2FLI-58" target="UTXrpBa6boiH1DBe2FLI-54" edge="1">
          <mxGeometry relative="1" as="geometry" />
        </mxCell>
        <mxCell id="UTXrpBa6boiH1DBe2FLI-75" style="edgeStyle=orthogonalEdgeStyle;rounded=0;orthogonalLoop=1;jettySize=auto;html=1;exitX=0.5;exitY=0;exitDx=0;exitDy=0;entryX=0.5;entryY=1;entryDx=0;entryDy=0;" parent="1" source="UTXrpBa6boiH1DBe2FLI-58" target="UTXrpBa6boiH1DBe2FLI-66" edge="1">
          <mxGeometry relative="1" as="geometry" />
        </mxCell>
        <mxCell id="UTXrpBa6boiH1DBe2FLI-76" style="edgeStyle=orthogonalEdgeStyle;rounded=0;orthogonalLoop=1;jettySize=auto;html=1;exitX=0.5;exitY=0;exitDx=0;exitDy=0;entryX=0.5;entryY=1;entryDx=0;entryDy=0;" parent="1" source="UTXrpBa6boiH1DBe2FLI-58" target="UTXrpBa6boiH1DBe2FLI-64" edge="1">
          <mxGeometry relative="1" as="geometry" />
        </mxCell>
        <mxCell id="UTXrpBa6boiH1DBe2FLI-77" style="edgeStyle=orthogonalEdgeStyle;rounded=0;orthogonalLoop=1;jettySize=auto;html=1;exitX=0.5;exitY=0;exitDx=0;exitDy=0;entryX=0.5;entryY=1;entryDx=0;entryDy=0;" parent="1" source="UTXrpBa6boiH1DBe2FLI-58" target="UTXrpBa6boiH1DBe2FLI-65" edge="1">
          <mxGeometry relative="1" as="geometry" />
        </mxCell>
        <mxCell id="UTXrpBa6boiH1DBe2FLI-58" value="Empleado" style="shape=ext;margin=3;double=1;whiteSpace=wrap;html=1;align=center;" parent="1" vertex="1">
          <mxGeometry x="120" y="570" width="100" height="40" as="geometry" />
        </mxCell>
        <mxCell id="UTXrpBa6boiH1DBe2FLI-62" style="edgeStyle=orthogonalEdgeStyle;rounded=0;orthogonalLoop=1;jettySize=auto;html=1;exitX=0.5;exitY=0;exitDx=0;exitDy=0;entryX=0;entryY=0.5;entryDx=0;entryDy=0;" parent="1" source="UTXrpBa6boiH1DBe2FLI-59" target="UTXrpBa6boiH1DBe2FLI-57" edge="1">
          <mxGeometry relative="1" as="geometry" />
        </mxCell>
        <mxCell id="UTXrpBa6boiH1DBe2FLI-78" style="edgeStyle=orthogonalEdgeStyle;rounded=0;orthogonalLoop=1;jettySize=auto;html=1;exitX=1;exitY=0.5;exitDx=0;exitDy=0;entryX=0.5;entryY=0;entryDx=0;entryDy=0;" parent="1" source="UTXrpBa6boiH1DBe2FLI-59" target="UTXrpBa6boiH1DBe2FLI-67" edge="1">
          <mxGeometry relative="1" as="geometry" />
        </mxCell>
        <mxCell id="UTXrpBa6boiH1DBe2FLI-79" style="edgeStyle=orthogonalEdgeStyle;rounded=0;orthogonalLoop=1;jettySize=auto;html=1;exitX=1;exitY=0.5;exitDx=0;exitDy=0;entryX=0.5;entryY=0;entryDx=0;entryDy=0;" parent="1" source="UTXrpBa6boiH1DBe2FLI-59" target="UTXrpBa6boiH1DBe2FLI-68" edge="1">
          <mxGeometry relative="1" as="geometry" />
        </mxCell>
        <mxCell id="UTXrpBa6boiH1DBe2FLI-80" style="edgeStyle=orthogonalEdgeStyle;rounded=0;orthogonalLoop=1;jettySize=auto;html=1;exitX=1;exitY=0.5;exitDx=0;exitDy=0;entryX=0.5;entryY=0;entryDx=0;entryDy=0;" parent="1" source="UTXrpBa6boiH1DBe2FLI-59" target="UTXrpBa6boiH1DBe2FLI-69" edge="1">
          <mxGeometry relative="1" as="geometry" />
        </mxCell>
        <mxCell id="UTXrpBa6boiH1DBe2FLI-59" value="Departamento" style="shape=ext;margin=3;double=1;whiteSpace=wrap;html=1;align=center;" parent="1" vertex="1">
          <mxGeometry x="395" y="570" width="100" height="40" as="geometry" />
        </mxCell>
        <mxCell id="UTXrpBa6boiH1DBe2FLI-64" value="Nombre" style="ellipse;whiteSpace=wrap;html=1;align=center;" parent="1" vertex="1">
          <mxGeometry x="10" y="510" width="100" height="40" as="geometry" />
        </mxCell>
        <mxCell id="UTXrpBa6boiH1DBe2FLI-65" value="Edad" style="ellipse;whiteSpace=wrap;html=1;align=center;" parent="1" vertex="1">
          <mxGeometry x="120" y="460" width="100" height="40" as="geometry" />
        </mxCell>
        <mxCell id="UTXrpBa6boiH1DBe2FLI-66" value="Sexo" style="ellipse;whiteSpace=wrap;html=1;align=center;" parent="1" vertex="1">
          <mxGeometry x="230" y="510" width="100" height="40" as="geometry" />
        </mxCell>
        <mxCell id="UTXrpBa6boiH1DBe2FLI-67" value="Cant. Empleados" style="ellipse;whiteSpace=wrap;html=1;align=center;" parent="1" vertex="1">
          <mxGeometry x="580" y="650" width="100" height="40" as="geometry" />
        </mxCell>
        <mxCell id="UTXrpBa6boiH1DBe2FLI-68" value="Categoría" style="ellipse;whiteSpace=wrap;html=1;align=center;" parent="1" vertex="1">
          <mxGeometry x="415" y="710" width="100" height="40" as="geometry" />
        </mxCell>
        <mxCell id="UTXrpBa6boiH1DBe2FLI-69" value="Jefe dep." style="ellipse;whiteSpace=wrap;html=1;align=center;" parent="1" vertex="1">
          <mxGeometry x="520" y="710" width="100" height="40" as="geometry" />
        </mxCell>
        <mxCell id="UTXrpBa6boiH1DBe2FLI-70" value="Nombre" style="ellipse;whiteSpace=wrap;html=1;align=center;" parent="1" vertex="1">
          <mxGeometry x="910" y="620" width="100" height="40" as="geometry" />
        </mxCell>
        <mxCell id="UTXrpBa6boiH1DBe2FLI-71" value="Año Fundación" style="ellipse;whiteSpace=wrap;html=1;align=center;" parent="1" vertex="1">
          <mxGeometry x="740" y="740" width="100" height="40" as="geometry" />
        </mxCell>
        <mxCell id="UTXrpBa6boiH1DBe2FLI-72" value="Ubicación" style="ellipse;whiteSpace=wrap;html=1;align=center;" parent="1" vertex="1">
          <mxGeometry x="865" y="740" width="100" height="40" as="geometry" />
        </mxCell>
        <mxCell id="UTXrpBa6boiH1DBe2FLI-73" value="(1,N)" style="text;strokeColor=none;fillColor=none;spacingLeft=4;spacingRight=4;overflow=hidden;rotatable=0;points=[[0,0.5],[1,0.5]];portConstraint=eastwest;fontSize=12;whiteSpace=wrap;html=1;" parent="1" vertex="1">
          <mxGeometry x="280" y="710" width="40" height="30" as="geometry" />
        </mxCell>
        <mxCell id="UTXrpBa6boiH1DBe2FLI-74" value="(1,N)" style="text;strokeColor=none;fillColor=none;spacingLeft=4;spacingRight=4;overflow=hidden;rotatable=0;points=[[0,0.5],[1,0.5]];portConstraint=eastwest;fontSize=12;whiteSpace=wrap;html=1;" parent="1" vertex="1">
          <mxGeometry x="580" y="440" width="40" height="30" as="geometry" />
        </mxCell>
        <mxCell id="Iyl1IDhOwi-nhxQjmKdL-4" style="edgeStyle=orthogonalEdgeStyle;rounded=0;orthogonalLoop=1;jettySize=auto;html=1;" parent="1" source="Iyl1IDhOwi-nhxQjmKdL-1" target="Iyl1IDhOwi-nhxQjmKdL-2" edge="1">
          <mxGeometry relative="1" as="geometry" />
        </mxCell>
        <mxCell id="Iyl1IDhOwi-nhxQjmKdL-21" value="0:1" style="edgeLabel;html=1;align=center;verticalAlign=middle;resizable=0;points=[];fontSize=15;" parent="Iyl1IDhOwi-nhxQjmKdL-4" vertex="1" connectable="0">
          <mxGeometry x="-0.0617" y="-4" relative="1" as="geometry">
            <mxPoint x="-3" y="-4" as="offset" />
          </mxGeometry>
        </mxCell>
        <mxCell id="Iyl1IDhOwi-nhxQjmKdL-28" style="edgeStyle=orthogonalEdgeStyle;rounded=0;orthogonalLoop=1;jettySize=auto;html=1;exitX=0.5;exitY=1;exitDx=0;exitDy=0;entryX=0.5;entryY=0;entryDx=0;entryDy=0;" parent="1" source="Iyl1IDhOwi-nhxQjmKdL-1" target="Iyl1IDhOwi-nhxQjmKdL-8" edge="1">
          <mxGeometry relative="1" as="geometry" />
        </mxCell>
        <mxCell id="Iyl1IDhOwi-nhxQjmKdL-29" style="edgeStyle=orthogonalEdgeStyle;rounded=0;orthogonalLoop=1;jettySize=auto;html=1;exitX=0.5;exitY=1;exitDx=0;exitDy=0;entryX=0.5;entryY=0;entryDx=0;entryDy=0;" parent="1" source="Iyl1IDhOwi-nhxQjmKdL-1" target="Iyl1IDhOwi-nhxQjmKdL-26" edge="1">
          <mxGeometry relative="1" as="geometry" />
        </mxCell>
        <mxCell id="Iyl1IDhOwi-nhxQjmKdL-30" style="edgeStyle=orthogonalEdgeStyle;rounded=0;orthogonalLoop=1;jettySize=auto;html=1;exitX=0.5;exitY=1;exitDx=0;exitDy=0;entryX=0.5;entryY=0;entryDx=0;entryDy=0;" parent="1" source="Iyl1IDhOwi-nhxQjmKdL-1" target="Iyl1IDhOwi-nhxQjmKdL-17" edge="1">
          <mxGeometry relative="1" as="geometry" />
        </mxCell>
        <mxCell id="Iyl1IDhOwi-nhxQjmKdL-1" value="&lt;b&gt;Cuenta&lt;/b&gt;" style="rounded=0;whiteSpace=wrap;html=1;fillColor=#dae8fc;strokeColor=#6c8ebf;" parent="1" vertex="1">
          <mxGeometry x="180" y="1470" width="120" height="60" as="geometry" />
        </mxCell>
        <mxCell id="Iyl1IDhOwi-nhxQjmKdL-7" style="edgeStyle=orthogonalEdgeStyle;rounded=0;orthogonalLoop=1;jettySize=auto;html=1;exitX=1;exitY=0.5;exitDx=0;exitDy=0;entryX=0;entryY=0.5;entryDx=0;entryDy=0;" parent="1" source="Iyl1IDhOwi-nhxQjmKdL-2" target="Iyl1IDhOwi-nhxQjmKdL-6" edge="1">
          <mxGeometry relative="1" as="geometry" />
        </mxCell>
        <mxCell id="Iyl1IDhOwi-nhxQjmKdL-25" value="0:N" style="edgeLabel;html=1;align=center;verticalAlign=middle;resizable=0;points=[];fontSize=15;" parent="Iyl1IDhOwi-nhxQjmKdL-7" vertex="1" connectable="0">
          <mxGeometry x="-0.0905" y="-1" relative="1" as="geometry">
            <mxPoint as="offset" />
          </mxGeometry>
        </mxCell>
        <mxCell id="Iyl1IDhOwi-nhxQjmKdL-2" value="Realiza" style="rhombus;whiteSpace=wrap;html=1;" parent="1" vertex="1">
          <mxGeometry x="435" y="1460" width="80" height="80" as="geometry" />
        </mxCell>
        <mxCell id="Iyl1IDhOwi-nhxQjmKdL-34" style="edgeStyle=orthogonalEdgeStyle;rounded=0;orthogonalLoop=1;jettySize=auto;html=1;exitX=0.5;exitY=1;exitDx=0;exitDy=0;entryX=0.5;entryY=0;entryDx=0;entryDy=0;" parent="1" source="Iyl1IDhOwi-nhxQjmKdL-6" target="Iyl1IDhOwi-nhxQjmKdL-16" edge="1">
          <mxGeometry relative="1" as="geometry" />
        </mxCell>
        <mxCell id="Iyl1IDhOwi-nhxQjmKdL-35" style="edgeStyle=orthogonalEdgeStyle;rounded=0;orthogonalLoop=1;jettySize=auto;html=1;exitX=0.5;exitY=1;exitDx=0;exitDy=0;entryX=0.5;entryY=0;entryDx=0;entryDy=0;" parent="1" source="Iyl1IDhOwi-nhxQjmKdL-6" target="Iyl1IDhOwi-nhxQjmKdL-15" edge="1">
          <mxGeometry relative="1" as="geometry" />
        </mxCell>
        <mxCell id="Iyl1IDhOwi-nhxQjmKdL-36" style="edgeStyle=orthogonalEdgeStyle;rounded=0;orthogonalLoop=1;jettySize=auto;html=1;exitX=0.5;exitY=1;exitDx=0;exitDy=0;entryX=0.5;entryY=0;entryDx=0;entryDy=0;" parent="1" source="Iyl1IDhOwi-nhxQjmKdL-6" target="Iyl1IDhOwi-nhxQjmKdL-10" edge="1">
          <mxGeometry relative="1" as="geometry" />
        </mxCell>
        <mxCell id="Iyl1IDhOwi-nhxQjmKdL-6" value="Transacción" style="shape=ext;margin=3;double=1;whiteSpace=wrap;html=1;align=center;fillColor=#e1d5e7;strokeColor=#9673a6;" parent="1" vertex="1">
          <mxGeometry x="655" y="1470" width="130" height="60" as="geometry" />
        </mxCell>
        <mxCell id="Iyl1IDhOwi-nhxQjmKdL-8" value="No. Cuenta" style="ellipse;whiteSpace=wrap;html=1;align=center;fontStyle=4;fillColor=#d5e8d4;strokeColor=#82b366;" parent="1" vertex="1">
          <mxGeometry x="100" y="1570" width="100" height="40" as="geometry" />
        </mxCell>
        <mxCell id="Iyl1IDhOwi-nhxQjmKdL-37" style="edgeStyle=orthogonalEdgeStyle;rounded=0;orthogonalLoop=1;jettySize=auto;html=1;exitX=0.5;exitY=1;exitDx=0;exitDy=0;entryX=0.5;entryY=0;entryDx=0;entryDy=0;" parent="1" source="Iyl1IDhOwi-nhxQjmKdL-10" target="Iyl1IDhOwi-nhxQjmKdL-13" edge="1">
          <mxGeometry relative="1" as="geometry" />
        </mxCell>
        <mxCell id="Iyl1IDhOwi-nhxQjmKdL-38" style="edgeStyle=orthogonalEdgeStyle;rounded=0;orthogonalLoop=1;jettySize=auto;html=1;exitX=0.5;exitY=1;exitDx=0;exitDy=0;entryX=0.5;entryY=0;entryDx=0;entryDy=0;" parent="1" source="Iyl1IDhOwi-nhxQjmKdL-10" target="Iyl1IDhOwi-nhxQjmKdL-14" edge="1">
          <mxGeometry relative="1" as="geometry" />
        </mxCell>
        <mxCell id="Iyl1IDhOwi-nhxQjmKdL-39" style="edgeStyle=orthogonalEdgeStyle;rounded=0;orthogonalLoop=1;jettySize=auto;html=1;exitX=0.5;exitY=1;exitDx=0;exitDy=0;entryX=0.5;entryY=0;entryDx=0;entryDy=0;" parent="1" source="Iyl1IDhOwi-nhxQjmKdL-10" target="Iyl1IDhOwi-nhxQjmKdL-11" edge="1">
          <mxGeometry relative="1" as="geometry" />
        </mxCell>
        <mxCell id="Iyl1IDhOwi-nhxQjmKdL-10" value="Tipo de movimiento" style="ellipse;shape=doubleEllipse;margin=3;whiteSpace=wrap;html=1;align=center;fillColor=#d5e8d4;strokeColor=#82b366;" parent="1" vertex="1">
          <mxGeometry x="670" y="1630" width="100" height="40" as="geometry" />
        </mxCell>
        <mxCell id="Iyl1IDhOwi-nhxQjmKdL-11" value="Transferencia" style="ellipse;whiteSpace=wrap;html=1;align=center;fillColor=#d5e8d4;strokeColor=#82b366;" parent="1" vertex="1">
          <mxGeometry x="542.5" y="1710" width="100" height="40" as="geometry" />
        </mxCell>
        <mxCell id="Iyl1IDhOwi-nhxQjmKdL-13" value="Depósito" style="ellipse;whiteSpace=wrap;html=1;align=center;fillColor=#d5e8d4;strokeColor=#82b366;" parent="1" vertex="1">
          <mxGeometry x="670" y="1710" width="100" height="40" as="geometry" />
        </mxCell>
        <mxCell id="Iyl1IDhOwi-nhxQjmKdL-14" value="Retiro" style="ellipse;whiteSpace=wrap;html=1;align=center;fillColor=#d5e8d4;strokeColor=#82b366;" parent="1" vertex="1">
          <mxGeometry x="800" y="1710" width="100" height="40" as="geometry" />
        </mxCell>
        <mxCell id="Iyl1IDhOwi-nhxQjmKdL-15" value="Fecha" style="ellipse;whiteSpace=wrap;html=1;align=center;fillColor=#d5e8d4;strokeColor=#82b366;" parent="1" vertex="1">
          <mxGeometry x="797.5" y="1570" width="100" height="40" as="geometry" />
        </mxCell>
        <mxCell id="Iyl1IDhOwi-nhxQjmKdL-16" value="Monto" style="ellipse;whiteSpace=wrap;html=1;align=center;dashed=1;fillColor=#d5e8d4;strokeColor=#82b366;" parent="1" vertex="1">
          <mxGeometry x="542.5" y="1570" width="100" height="40" as="geometry" />
        </mxCell>
        <mxCell id="Iyl1IDhOwi-nhxQjmKdL-31" style="edgeStyle=orthogonalEdgeStyle;rounded=0;orthogonalLoop=1;jettySize=auto;html=1;exitX=0.5;exitY=1;exitDx=0;exitDy=0;entryX=0.5;entryY=0;entryDx=0;entryDy=0;" parent="1" source="Iyl1IDhOwi-nhxQjmKdL-17" target="Iyl1IDhOwi-nhxQjmKdL-19" edge="1">
          <mxGeometry relative="1" as="geometry" />
        </mxCell>
        <mxCell id="Iyl1IDhOwi-nhxQjmKdL-32" style="edgeStyle=orthogonalEdgeStyle;rounded=0;orthogonalLoop=1;jettySize=auto;html=1;exitX=0.5;exitY=1;exitDx=0;exitDy=0;entryX=0.5;entryY=0;entryDx=0;entryDy=0;" parent="1" source="Iyl1IDhOwi-nhxQjmKdL-17" target="Iyl1IDhOwi-nhxQjmKdL-18" edge="1">
          <mxGeometry relative="1" as="geometry" />
        </mxCell>
        <mxCell id="Iyl1IDhOwi-nhxQjmKdL-41" style="edgeStyle=orthogonalEdgeStyle;rounded=0;orthogonalLoop=1;jettySize=auto;html=1;exitX=0.5;exitY=1;exitDx=0;exitDy=0;" parent="1" source="Iyl1IDhOwi-nhxQjmKdL-17" target="Iyl1IDhOwi-nhxQjmKdL-40" edge="1">
          <mxGeometry relative="1" as="geometry" />
        </mxCell>
        <mxCell id="Iyl1IDhOwi-nhxQjmKdL-17" value="Usuario" style="ellipse;shape=doubleEllipse;margin=3;whiteSpace=wrap;html=1;align=center;fillColor=#d5e8d4;strokeColor=#82b366;" parent="1" vertex="1">
          <mxGeometry x="190" y="1630" width="100" height="40" as="geometry" />
        </mxCell>
        <mxCell id="Iyl1IDhOwi-nhxQjmKdL-18" value="Nombre" style="ellipse;whiteSpace=wrap;html=1;align=center;fillColor=#d5e8d4;strokeColor=#82b366;" parent="1" vertex="1">
          <mxGeometry x="120" y="1700" width="100" height="40" as="geometry" />
        </mxCell>
        <mxCell id="Iyl1IDhOwi-nhxQjmKdL-19" value="Apellido" style="ellipse;whiteSpace=wrap;html=1;align=center;fillColor=#d5e8d4;strokeColor=#82b366;" parent="1" vertex="1">
          <mxGeometry x="260" y="1700" width="100" height="40" as="geometry" />
        </mxCell>
        <mxCell id="Iyl1IDhOwi-nhxQjmKdL-20" value="1:N" style="text;html=1;align=center;verticalAlign=middle;whiteSpace=wrap;rounded=0;fontSize=15;fillColor=none;" parent="1" vertex="1">
          <mxGeometry x="445" y="1540" width="60" height="30" as="geometry" />
        </mxCell>
        <mxCell id="Iyl1IDhOwi-nhxQjmKdL-26" value="Balance" style="ellipse;whiteSpace=wrap;html=1;align=center;dashed=1;fillColor=#d5e8d4;strokeColor=#82b366;" parent="1" vertex="1">
          <mxGeometry x="290" y="1570" width="100" height="40" as="geometry" />
        </mxCell>
        <mxCell id="Iyl1IDhOwi-nhxQjmKdL-44" style="edgeStyle=orthogonalEdgeStyle;rounded=0;orthogonalLoop=1;jettySize=auto;html=1;exitX=0.5;exitY=1;exitDx=0;exitDy=0;entryX=0.5;entryY=0;entryDx=0;entryDy=0;" parent="1" source="Iyl1IDhOwi-nhxQjmKdL-40" target="Iyl1IDhOwi-nhxQjmKdL-43" edge="1">
          <mxGeometry relative="1" as="geometry" />
        </mxCell>
        <mxCell id="Iyl1IDhOwi-nhxQjmKdL-45" style="edgeStyle=orthogonalEdgeStyle;rounded=0;orthogonalLoop=1;jettySize=auto;html=1;exitX=0.5;exitY=1;exitDx=0;exitDy=0;entryX=0.5;entryY=0;entryDx=0;entryDy=0;" parent="1" source="Iyl1IDhOwi-nhxQjmKdL-40" target="Iyl1IDhOwi-nhxQjmKdL-42" edge="1">
          <mxGeometry relative="1" as="geometry" />
        </mxCell>
        <mxCell id="Iyl1IDhOwi-nhxQjmKdL-40" value="Edad" style="ellipse;shape=doubleEllipse;margin=3;whiteSpace=wrap;html=1;align=center;fillColor=#d5e8d4;strokeColor=#82b366;" parent="1" vertex="1">
          <mxGeometry x="190" y="1760" width="100" height="40" as="geometry" />
        </mxCell>
        <mxCell id="Iyl1IDhOwi-nhxQjmKdL-42" value="Año nacimiento" style="ellipse;whiteSpace=wrap;html=1;align=center;fillColor=#d5e8d4;strokeColor=#82b366;" parent="1" vertex="1">
          <mxGeometry x="120" y="1840" width="100" height="40" as="geometry" />
        </mxCell>
        <mxCell id="Iyl1IDhOwi-nhxQjmKdL-43" value="Año nacimiento" style="ellipse;whiteSpace=wrap;html=1;align=center;fillColor=#d5e8d4;strokeColor=#82b366;" parent="1" vertex="1">
          <mxGeometry x="255" y="1840" width="100" height="40" as="geometry" />
        </mxCell>
        <mxCell id="Iyl1IDhOwi-nhxQjmKdL-47" value="Ejercicio 18-03" style="text;html=1;align=center;verticalAlign=middle;whiteSpace=wrap;rounded=0;fontSize=15;" parent="1" vertex="1">
          <mxGeometry x="30" y="2050" width="140" height="30" as="geometry" />
        </mxCell>
        <mxCell id="Iyl1IDhOwi-nhxQjmKdL-73" style="edgeStyle=orthogonalEdgeStyle;rounded=0;orthogonalLoop=1;jettySize=auto;html=1;exitX=1;exitY=0.5;exitDx=0;exitDy=0;entryX=0;entryY=0.5;entryDx=0;entryDy=0;" parent="1" source="Iyl1IDhOwi-nhxQjmKdL-50" target="Iyl1IDhOwi-nhxQjmKdL-67" edge="1">
          <mxGeometry relative="1" as="geometry" />
        </mxCell>
        <mxCell id="Iyl1IDhOwi-nhxQjmKdL-74" style="edgeStyle=orthogonalEdgeStyle;rounded=0;orthogonalLoop=1;jettySize=auto;html=1;exitX=1;exitY=0.5;exitDx=0;exitDy=0;entryX=0;entryY=0.5;entryDx=0;entryDy=0;" parent="1" source="Iyl1IDhOwi-nhxQjmKdL-50" target="Iyl1IDhOwi-nhxQjmKdL-68" edge="1">
          <mxGeometry relative="1" as="geometry" />
        </mxCell>
        <mxCell id="Iyl1IDhOwi-nhxQjmKdL-75" style="edgeStyle=orthogonalEdgeStyle;rounded=0;orthogonalLoop=1;jettySize=auto;html=1;exitX=1;exitY=0.5;exitDx=0;exitDy=0;" parent="1" source="Iyl1IDhOwi-nhxQjmKdL-50" edge="1">
          <mxGeometry relative="1" as="geometry">
            <mxPoint x="972.5" y="2460" as="targetPoint" />
          </mxGeometry>
        </mxCell>
        <mxCell id="Iyl1IDhOwi-nhxQjmKdL-76" style="edgeStyle=orthogonalEdgeStyle;rounded=0;orthogonalLoop=1;jettySize=auto;html=1;entryX=0;entryY=0.5;entryDx=0;entryDy=0;" parent="1" source="Iyl1IDhOwi-nhxQjmKdL-50" target="Iyl1IDhOwi-nhxQjmKdL-71" edge="1">
          <mxGeometry relative="1" as="geometry" />
        </mxCell>
        <mxCell id="Iyl1IDhOwi-nhxQjmKdL-77" style="edgeStyle=orthogonalEdgeStyle;rounded=0;orthogonalLoop=1;jettySize=auto;html=1;entryX=0;entryY=0.5;entryDx=0;entryDy=0;" parent="1" source="Iyl1IDhOwi-nhxQjmKdL-50" target="Iyl1IDhOwi-nhxQjmKdL-72" edge="1">
          <mxGeometry relative="1" as="geometry" />
        </mxCell>
        <mxCell id="Iyl1IDhOwi-nhxQjmKdL-50" value="Proveedor" style="whiteSpace=wrap;html=1;align=center;" parent="1" vertex="1">
          <mxGeometry x="802.5" y="2440" width="100" height="40" as="geometry" />
        </mxCell>
        <mxCell id="Iyl1IDhOwi-nhxQjmKdL-57" style="edgeStyle=orthogonalEdgeStyle;rounded=0;orthogonalLoop=1;jettySize=auto;html=1;exitX=0.5;exitY=1;exitDx=0;exitDy=0;entryX=0;entryY=0.5;entryDx=0;entryDy=0;" parent="1" source="Iyl1IDhOwi-nhxQjmKdL-52" target="Iyl1IDhOwi-nhxQjmKdL-54" edge="1">
          <mxGeometry relative="1" as="geometry" />
        </mxCell>
        <mxCell id="Iyl1IDhOwi-nhxQjmKdL-86" style="edgeStyle=orthogonalEdgeStyle;rounded=0;orthogonalLoop=1;jettySize=auto;html=1;exitX=0;exitY=0.5;exitDx=0;exitDy=0;entryX=1;entryY=0.5;entryDx=0;entryDy=0;" parent="1" source="Iyl1IDhOwi-nhxQjmKdL-52" target="Iyl1IDhOwi-nhxQjmKdL-81" edge="1">
          <mxGeometry relative="1" as="geometry" />
        </mxCell>
        <mxCell id="Iyl1IDhOwi-nhxQjmKdL-87" style="edgeStyle=orthogonalEdgeStyle;rounded=0;orthogonalLoop=1;jettySize=auto;html=1;exitX=0;exitY=0.5;exitDx=0;exitDy=0;entryX=1;entryY=0.5;entryDx=0;entryDy=0;" parent="1" source="Iyl1IDhOwi-nhxQjmKdL-52" target="Iyl1IDhOwi-nhxQjmKdL-80" edge="1">
          <mxGeometry relative="1" as="geometry" />
        </mxCell>
        <mxCell id="Iyl1IDhOwi-nhxQjmKdL-88" style="edgeStyle=orthogonalEdgeStyle;rounded=0;orthogonalLoop=1;jettySize=auto;html=1;exitX=0;exitY=0.5;exitDx=0;exitDy=0;entryX=1;entryY=0.5;entryDx=0;entryDy=0;" parent="1" source="Iyl1IDhOwi-nhxQjmKdL-52" target="Iyl1IDhOwi-nhxQjmKdL-69" edge="1">
          <mxGeometry relative="1" as="geometry" />
        </mxCell>
        <mxCell id="Iyl1IDhOwi-nhxQjmKdL-52" value="Cliente" style="whiteSpace=wrap;html=1;align=center;" parent="1" vertex="1">
          <mxGeometry x="152.5" y="2440" width="100" height="40" as="geometry" />
        </mxCell>
        <mxCell id="Iyl1IDhOwi-nhxQjmKdL-59" style="edgeStyle=orthogonalEdgeStyle;rounded=0;orthogonalLoop=1;jettySize=auto;html=1;exitX=0.5;exitY=1;exitDx=0;exitDy=0;entryX=0;entryY=0.5;entryDx=0;entryDy=0;" parent="1" source="Iyl1IDhOwi-nhxQjmKdL-53" target="Iyl1IDhOwi-nhxQjmKdL-55" edge="1">
          <mxGeometry relative="1" as="geometry" />
        </mxCell>
        <mxCell id="Iyl1IDhOwi-nhxQjmKdL-128" style="edgeStyle=orthogonalEdgeStyle;rounded=0;orthogonalLoop=1;jettySize=auto;html=1;entryX=0.5;entryY=1;entryDx=0;entryDy=0;" parent="1" source="Iyl1IDhOwi-nhxQjmKdL-53" target="Iyl1IDhOwi-nhxQjmKdL-117" edge="1">
          <mxGeometry relative="1" as="geometry" />
        </mxCell>
        <mxCell id="Iyl1IDhOwi-nhxQjmKdL-53" value="Compra" style="whiteSpace=wrap;html=1;align=center;" parent="1" vertex="1">
          <mxGeometry x="372.5" y="2440" width="100" height="40" as="geometry" />
        </mxCell>
        <mxCell id="Iyl1IDhOwi-nhxQjmKdL-58" style="edgeStyle=orthogonalEdgeStyle;rounded=0;orthogonalLoop=1;jettySize=auto;html=1;exitX=1;exitY=0.5;exitDx=0;exitDy=0;entryX=0;entryY=0.5;entryDx=0;entryDy=0;" parent="1" source="Iyl1IDhOwi-nhxQjmKdL-54" target="Iyl1IDhOwi-nhxQjmKdL-53" edge="1">
          <mxGeometry relative="1" as="geometry" />
        </mxCell>
        <mxCell id="Iyl1IDhOwi-nhxQjmKdL-54" value="Realiza" style="shape=rhombus;perimeter=rhombusPerimeter;whiteSpace=wrap;html=1;align=center;" parent="1" vertex="1">
          <mxGeometry x="247.5" y="2530" width="120" height="60" as="geometry" />
        </mxCell>
        <mxCell id="Iyl1IDhOwi-nhxQjmKdL-65" style="edgeStyle=orthogonalEdgeStyle;rounded=0;orthogonalLoop=1;jettySize=auto;html=1;exitX=1;exitY=0.5;exitDx=0;exitDy=0;entryX=0;entryY=0.5;entryDx=0;entryDy=0;" parent="1" source="Iyl1IDhOwi-nhxQjmKdL-55" target="Iyl1IDhOwi-nhxQjmKdL-64" edge="1">
          <mxGeometry relative="1" as="geometry" />
        </mxCell>
        <mxCell id="Iyl1IDhOwi-nhxQjmKdL-55" value="Tiene" style="shape=rhombus;perimeter=rhombusPerimeter;whiteSpace=wrap;html=1;align=center;" parent="1" vertex="1">
          <mxGeometry x="462.5" y="2530" width="120" height="60" as="geometry" />
        </mxCell>
        <mxCell id="Iyl1IDhOwi-nhxQjmKdL-62" style="edgeStyle=orthogonalEdgeStyle;rounded=0;orthogonalLoop=1;jettySize=auto;html=1;exitX=1;exitY=0.5;exitDx=0;exitDy=0;entryX=0;entryY=0.5;entryDx=0;entryDy=0;" parent="1" source="Iyl1IDhOwi-nhxQjmKdL-56" target="Iyl1IDhOwi-nhxQjmKdL-50" edge="1">
          <mxGeometry relative="1" as="geometry" />
        </mxCell>
        <mxCell id="Iyl1IDhOwi-nhxQjmKdL-56" value="Suministra" style="shape=rhombus;perimeter=rhombusPerimeter;whiteSpace=wrap;html=1;align=center;" parent="1" vertex="1">
          <mxGeometry x="682.5" y="2530" width="120" height="60" as="geometry" />
        </mxCell>
        <mxCell id="Iyl1IDhOwi-nhxQjmKdL-66" style="edgeStyle=orthogonalEdgeStyle;rounded=0;orthogonalLoop=1;jettySize=auto;html=1;entryX=0;entryY=0.5;entryDx=0;entryDy=0;" parent="1" source="Iyl1IDhOwi-nhxQjmKdL-64" target="Iyl1IDhOwi-nhxQjmKdL-56" edge="1">
          <mxGeometry relative="1" as="geometry" />
        </mxCell>
        <mxCell id="Iyl1IDhOwi-nhxQjmKdL-110" style="edgeStyle=orthogonalEdgeStyle;rounded=0;orthogonalLoop=1;jettySize=auto;html=1;exitX=0.5;exitY=0;exitDx=0;exitDy=0;entryX=0;entryY=0.5;entryDx=0;entryDy=0;" parent="1" source="Iyl1IDhOwi-nhxQjmKdL-64" target="Iyl1IDhOwi-nhxQjmKdL-103" edge="1">
          <mxGeometry relative="1" as="geometry" />
        </mxCell>
        <mxCell id="Iyl1IDhOwi-nhxQjmKdL-111" style="edgeStyle=orthogonalEdgeStyle;rounded=0;orthogonalLoop=1;jettySize=auto;html=1;exitX=0.5;exitY=0;exitDx=0;exitDy=0;entryX=0;entryY=0.5;entryDx=0;entryDy=0;" parent="1" source="Iyl1IDhOwi-nhxQjmKdL-64" target="Iyl1IDhOwi-nhxQjmKdL-102" edge="1">
          <mxGeometry relative="1" as="geometry" />
        </mxCell>
        <mxCell id="Iyl1IDhOwi-nhxQjmKdL-112" style="edgeStyle=orthogonalEdgeStyle;rounded=0;orthogonalLoop=1;jettySize=auto;html=1;exitX=0.5;exitY=0;exitDx=0;exitDy=0;entryX=0;entryY=0.5;entryDx=0;entryDy=0;" parent="1" source="Iyl1IDhOwi-nhxQjmKdL-64" target="Iyl1IDhOwi-nhxQjmKdL-101" edge="1">
          <mxGeometry relative="1" as="geometry" />
        </mxCell>
        <mxCell id="Iyl1IDhOwi-nhxQjmKdL-113" style="edgeStyle=orthogonalEdgeStyle;rounded=0;orthogonalLoop=1;jettySize=auto;html=1;exitX=0.5;exitY=0;exitDx=0;exitDy=0;entryX=0;entryY=0.5;entryDx=0;entryDy=0;" parent="1" source="Iyl1IDhOwi-nhxQjmKdL-64" target="Iyl1IDhOwi-nhxQjmKdL-98" edge="1">
          <mxGeometry relative="1" as="geometry" />
        </mxCell>
        <mxCell id="Iyl1IDhOwi-nhxQjmKdL-114" style="edgeStyle=orthogonalEdgeStyle;rounded=0;orthogonalLoop=1;jettySize=auto;html=1;exitX=0.5;exitY=0;exitDx=0;exitDy=0;entryX=0;entryY=0.5;entryDx=0;entryDy=0;" parent="1" source="Iyl1IDhOwi-nhxQjmKdL-64" target="Iyl1IDhOwi-nhxQjmKdL-99" edge="1">
          <mxGeometry relative="1" as="geometry" />
        </mxCell>
        <mxCell id="Iyl1IDhOwi-nhxQjmKdL-64" value="Producto" style="shape=ext;margin=3;double=1;whiteSpace=wrap;html=1;align=center;" parent="1" vertex="1">
          <mxGeometry x="582.5" y="2440" width="100" height="40" as="geometry" />
        </mxCell>
        <mxCell id="Iyl1IDhOwi-nhxQjmKdL-67" value="NIT" style="ellipse;whiteSpace=wrap;html=1;align=center;" parent="1" vertex="1">
          <mxGeometry x="977.5" y="2320" width="100" height="40" as="geometry" />
        </mxCell>
        <mxCell id="Iyl1IDhOwi-nhxQjmKdL-68" value="Nombre" style="ellipse;whiteSpace=wrap;html=1;align=center;" parent="1" vertex="1">
          <mxGeometry x="977.5" y="2380" width="100" height="40" as="geometry" />
        </mxCell>
        <mxCell id="Iyl1IDhOwi-nhxQjmKdL-69" value="Teléfono" style="ellipse;shape=doubleEllipse;margin=3;whiteSpace=wrap;html=1;align=center;" parent="1" vertex="1">
          <mxGeometry x="12.5" y="2490" width="100" height="40" as="geometry" />
        </mxCell>
        <mxCell id="Iyl1IDhOwi-nhxQjmKdL-70" value="Teléfono" style="ellipse;whiteSpace=wrap;html=1;align=center;" parent="1" vertex="1">
          <mxGeometry x="977.5" y="2440" width="100" height="40" as="geometry" />
        </mxCell>
        <mxCell id="Iyl1IDhOwi-nhxQjmKdL-71" value="Correo" style="ellipse;whiteSpace=wrap;html=1;align=center;" parent="1" vertex="1">
          <mxGeometry x="977.5" y="2500" width="100" height="40" as="geometry" />
        </mxCell>
        <mxCell id="Iyl1IDhOwi-nhxQjmKdL-72" value="Página web" style="ellipse;whiteSpace=wrap;html=1;align=center;" parent="1" vertex="1">
          <mxGeometry x="977.5" y="2560" width="100" height="40" as="geometry" />
        </mxCell>
        <mxCell id="Iyl1IDhOwi-nhxQjmKdL-80" value="Nombre" style="ellipse;whiteSpace=wrap;html=1;align=center;" parent="1" vertex="1">
          <mxGeometry x="12.5" y="2320" width="100" height="40" as="geometry" />
        </mxCell>
        <mxCell id="Iyl1IDhOwi-nhxQjmKdL-94" style="edgeStyle=orthogonalEdgeStyle;rounded=0;orthogonalLoop=1;jettySize=auto;html=1;exitX=0;exitY=0.5;exitDx=0;exitDy=0;entryX=1;entryY=0.5;entryDx=0;entryDy=0;" parent="1" source="Iyl1IDhOwi-nhxQjmKdL-81" target="Iyl1IDhOwi-nhxQjmKdL-90" edge="1">
          <mxGeometry relative="1" as="geometry" />
        </mxCell>
        <mxCell id="Iyl1IDhOwi-nhxQjmKdL-95" style="edgeStyle=orthogonalEdgeStyle;rounded=0;orthogonalLoop=1;jettySize=auto;html=1;exitX=0;exitY=0.5;exitDx=0;exitDy=0;entryX=1;entryY=0.5;entryDx=0;entryDy=0;" parent="1" source="Iyl1IDhOwi-nhxQjmKdL-81" target="Iyl1IDhOwi-nhxQjmKdL-91" edge="1">
          <mxGeometry relative="1" as="geometry" />
        </mxCell>
        <mxCell id="Iyl1IDhOwi-nhxQjmKdL-96" style="edgeStyle=orthogonalEdgeStyle;rounded=0;orthogonalLoop=1;jettySize=auto;html=1;exitX=0;exitY=0.5;exitDx=0;exitDy=0;entryX=1;entryY=0.5;entryDx=0;entryDy=0;" parent="1" source="Iyl1IDhOwi-nhxQjmKdL-81" target="Iyl1IDhOwi-nhxQjmKdL-92" edge="1">
          <mxGeometry relative="1" as="geometry" />
        </mxCell>
        <mxCell id="Iyl1IDhOwi-nhxQjmKdL-97" style="edgeStyle=orthogonalEdgeStyle;rounded=0;orthogonalLoop=1;jettySize=auto;html=1;exitX=0;exitY=0.5;exitDx=0;exitDy=0;entryX=1;entryY=0.5;entryDx=0;entryDy=0;" parent="1" source="Iyl1IDhOwi-nhxQjmKdL-81" target="Iyl1IDhOwi-nhxQjmKdL-93" edge="1">
          <mxGeometry relative="1" as="geometry" />
        </mxCell>
        <mxCell id="Iyl1IDhOwi-nhxQjmKdL-81" value="Dirección" style="ellipse;whiteSpace=wrap;html=1;align=center;" parent="1" vertex="1">
          <mxGeometry x="12.5" y="2400" width="100" height="40" as="geometry" />
        </mxCell>
        <mxCell id="Iyl1IDhOwi-nhxQjmKdL-90" value="Calle" style="ellipse;margin=3;whiteSpace=wrap;html=1;align=center;" parent="1" vertex="1">
          <mxGeometry x="-147.5" y="2300" width="100" height="40" as="geometry" />
        </mxCell>
        <mxCell id="Iyl1IDhOwi-nhxQjmKdL-91" value="No. Casa" style="ellipse;margin=3;whiteSpace=wrap;html=1;align=center;" parent="1" vertex="1">
          <mxGeometry x="-147.5" y="2360" width="100" height="40" as="geometry" />
        </mxCell>
        <mxCell id="Iyl1IDhOwi-nhxQjmKdL-92" value="Municipio" style="ellipse;margin=3;whiteSpace=wrap;html=1;align=center;" parent="1" vertex="1">
          <mxGeometry x="-147.5" y="2420" width="100" height="40" as="geometry" />
        </mxCell>
        <mxCell id="Iyl1IDhOwi-nhxQjmKdL-93" value="Distrito" style="ellipse;margin=3;whiteSpace=wrap;html=1;align=center;" parent="1" vertex="1">
          <mxGeometry x="-147.5" y="2480" width="100" height="40" as="geometry" />
        </mxCell>
        <mxCell id="Iyl1IDhOwi-nhxQjmKdL-98" value="Código" style="ellipse;whiteSpace=wrap;html=1;align=center;fontStyle=4;" parent="1" vertex="1">
          <mxGeometry x="652.5" y="2230" width="100" height="40" as="geometry" />
        </mxCell>
        <mxCell id="Iyl1IDhOwi-nhxQjmKdL-99" value="Nombre" style="ellipse;whiteSpace=wrap;html=1;align=center;" parent="1" vertex="1">
          <mxGeometry x="652.5" y="2180" width="100" height="40" as="geometry" />
        </mxCell>
        <mxCell id="Iyl1IDhOwi-nhxQjmKdL-101" value="Precio" style="ellipse;shape=doubleEllipse;margin=3;whiteSpace=wrap;html=1;align=center;" parent="1" vertex="1">
          <mxGeometry x="652.5" y="2280" width="100" height="40" as="geometry" />
        </mxCell>
        <mxCell id="Iyl1IDhOwi-nhxQjmKdL-102" value="Stock" style="ellipse;whiteSpace=wrap;html=1;align=center;" parent="1" vertex="1">
          <mxGeometry x="652.5" y="2330" width="100" height="40" as="geometry" />
        </mxCell>
        <mxCell id="Iyl1IDhOwi-nhxQjmKdL-108" style="edgeStyle=orthogonalEdgeStyle;rounded=0;orthogonalLoop=1;jettySize=auto;html=1;exitX=1;exitY=0.5;exitDx=0;exitDy=0;entryX=0;entryY=0.5;entryDx=0;entryDy=0;" parent="1" source="Iyl1IDhOwi-nhxQjmKdL-103" target="Iyl1IDhOwi-nhxQjmKdL-105" edge="1">
          <mxGeometry relative="1" as="geometry" />
        </mxCell>
        <mxCell id="Iyl1IDhOwi-nhxQjmKdL-109" style="edgeStyle=orthogonalEdgeStyle;rounded=0;orthogonalLoop=1;jettySize=auto;html=1;exitX=1;exitY=0.5;exitDx=0;exitDy=0;entryX=0;entryY=0.5;entryDx=0;entryDy=0;" parent="1" source="Iyl1IDhOwi-nhxQjmKdL-103" target="Iyl1IDhOwi-nhxQjmKdL-107" edge="1">
          <mxGeometry relative="1" as="geometry" />
        </mxCell>
        <mxCell id="Iyl1IDhOwi-nhxQjmKdL-103" value="Categoría" style="ellipse;whiteSpace=wrap;html=1;align=center;" parent="1" vertex="1">
          <mxGeometry x="652.5" y="2380" width="100" height="40" as="geometry" />
        </mxCell>
        <mxCell id="Iyl1IDhOwi-nhxQjmKdL-105" value="Nombre" style="ellipse;whiteSpace=wrap;html=1;align=center;dashed=1;" parent="1" vertex="1">
          <mxGeometry x="802.5" y="2330" width="100" height="40" as="geometry" />
        </mxCell>
        <mxCell id="Iyl1IDhOwi-nhxQjmKdL-107" value="Descripción" style="ellipse;shape=doubleEllipse;margin=3;whiteSpace=wrap;html=1;align=center;" parent="1" vertex="1">
          <mxGeometry x="802.5" y="2380" width="100" height="40" as="geometry" />
        </mxCell>
        <mxCell id="Iyl1IDhOwi-nhxQjmKdL-124" style="edgeStyle=orthogonalEdgeStyle;rounded=0;orthogonalLoop=1;jettySize=auto;html=1;exitX=0;exitY=0.5;exitDx=0;exitDy=0;entryX=1;entryY=0.5;entryDx=0;entryDy=0;" parent="1" source="Iyl1IDhOwi-nhxQjmKdL-116" target="Iyl1IDhOwi-nhxQjmKdL-121" edge="1">
          <mxGeometry relative="1" as="geometry" />
        </mxCell>
        <mxCell id="Iyl1IDhOwi-nhxQjmKdL-125" style="edgeStyle=orthogonalEdgeStyle;rounded=0;orthogonalLoop=1;jettySize=auto;html=1;exitX=0;exitY=0.5;exitDx=0;exitDy=0;entryX=1;entryY=0.5;entryDx=0;entryDy=0;" parent="1" source="Iyl1IDhOwi-nhxQjmKdL-116" target="Iyl1IDhOwi-nhxQjmKdL-118" edge="1">
          <mxGeometry relative="1" as="geometry" />
        </mxCell>
        <mxCell id="Iyl1IDhOwi-nhxQjmKdL-126" style="edgeStyle=orthogonalEdgeStyle;rounded=0;orthogonalLoop=1;jettySize=auto;html=1;exitX=0;exitY=0.5;exitDx=0;exitDy=0;entryX=1;entryY=0.5;entryDx=0;entryDy=0;" parent="1" source="Iyl1IDhOwi-nhxQjmKdL-116" target="Iyl1IDhOwi-nhxQjmKdL-120" edge="1">
          <mxGeometry relative="1" as="geometry" />
        </mxCell>
        <mxCell id="Iyl1IDhOwi-nhxQjmKdL-127" style="edgeStyle=orthogonalEdgeStyle;rounded=0;orthogonalLoop=1;jettySize=auto;html=1;exitX=0;exitY=0.5;exitDx=0;exitDy=0;entryX=1;entryY=0.5;entryDx=0;entryDy=0;" parent="1" source="Iyl1IDhOwi-nhxQjmKdL-116" target="Iyl1IDhOwi-nhxQjmKdL-123" edge="1">
          <mxGeometry relative="1" as="geometry" />
        </mxCell>
        <mxCell id="Iyl1IDhOwi-nhxQjmKdL-116" value="Factura" style="shape=ext;margin=3;double=1;whiteSpace=wrap;html=1;align=center;" parent="1" vertex="1">
          <mxGeometry x="372.5" y="2270" width="100" height="40" as="geometry" />
        </mxCell>
        <mxCell id="Iyl1IDhOwi-nhxQjmKdL-129" style="edgeStyle=orthogonalEdgeStyle;rounded=0;orthogonalLoop=1;jettySize=auto;html=1;" parent="1" source="Iyl1IDhOwi-nhxQjmKdL-117" target="Iyl1IDhOwi-nhxQjmKdL-116" edge="1">
          <mxGeometry relative="1" as="geometry" />
        </mxCell>
        <mxCell id="Iyl1IDhOwi-nhxQjmKdL-117" value="Genera" style="shape=rhombus;perimeter=rhombusPerimeter;whiteSpace=wrap;html=1;align=center;" parent="1" vertex="1">
          <mxGeometry x="362.5" y="2340" width="120" height="60" as="geometry" />
        </mxCell>
        <mxCell id="Iyl1IDhOwi-nhxQjmKdL-118" value="Código" style="ellipse;whiteSpace=wrap;html=1;align=center;fontStyle=4;" parent="1" vertex="1">
          <mxGeometry x="200" y="2210" width="100" height="40" as="geometry" />
        </mxCell>
        <mxCell id="Iyl1IDhOwi-nhxQjmKdL-120" value="Fecha" style="ellipse;shape=doubleEllipse;margin=3;whiteSpace=wrap;html=1;align=center;" parent="1" vertex="1">
          <mxGeometry x="200" y="2150" width="100" height="40" as="geometry" />
        </mxCell>
        <mxCell id="Iyl1IDhOwi-nhxQjmKdL-121" value="Cantidad" style="ellipse;whiteSpace=wrap;html=1;align=center;" parent="1" vertex="1">
          <mxGeometry x="200" y="2270" width="100" height="40" as="geometry" />
        </mxCell>
        <mxCell id="Iyl1IDhOwi-nhxQjmKdL-123" value="Total" style="ellipse;whiteSpace=wrap;html=1;align=center;dashed=1;" parent="1" vertex="1">
          <mxGeometry x="200" y="2090" width="100" height="40" as="geometry" />
        </mxCell>
        <mxCell id="Iyl1IDhOwi-nhxQjmKdL-131" value="(N,M)" style="text;html=1;align=center;verticalAlign=middle;whiteSpace=wrap;rounded=0;" parent="1" vertex="1">
          <mxGeometry x="712.5" y="2505" width="60" height="30" as="geometry" />
        </mxCell>
        <mxCell id="Iyl1IDhOwi-nhxQjmKdL-132" value="(N,M)" style="text;html=1;align=center;verticalAlign=middle;whiteSpace=wrap;rounded=0;" parent="1" vertex="1">
          <mxGeometry x="495" y="2500" width="60" height="30" as="geometry" />
        </mxCell>
        <mxCell id="Iyl1IDhOwi-nhxQjmKdL-133" value="(1,N)" style="text;html=1;align=center;verticalAlign=middle;whiteSpace=wrap;rounded=0;" parent="1" vertex="1">
          <mxGeometry x="280" y="2505" width="60" height="30" as="geometry" />
        </mxCell>
        <mxCell id="Iyl1IDhOwi-nhxQjmKdL-134" value="(1,1)" style="text;html=1;align=center;verticalAlign=middle;whiteSpace=wrap;rounded=0;" parent="1" vertex="1">
          <mxGeometry x="472.5" y="2350" width="60" height="30" as="geometry" />
        </mxCell>
        <mxCell id="Iyl1IDhOwi-nhxQjmKdL-136" value="(1,N)" style="text;html=1;align=center;verticalAlign=middle;whiteSpace=wrap;rounded=0;" parent="1" vertex="1">
          <mxGeometry x="817.5" y="2510" width="60" height="30" as="geometry" />
        </mxCell>
        <mxCell id="Iyl1IDhOwi-nhxQjmKdL-139" value="(1,N)" style="text;html=1;align=center;verticalAlign=middle;whiteSpace=wrap;rounded=0;" parent="1" vertex="1">
          <mxGeometry x="630" y="2495" width="60" height="30" as="geometry" />
        </mxCell>
        <mxCell id="Iyl1IDhOwi-nhxQjmKdL-140" value="(1,N)" style="text;html=1;align=center;verticalAlign=middle;whiteSpace=wrap;rounded=0;" parent="1" vertex="1">
          <mxGeometry x="555" y="2480" width="60" height="30" as="geometry" />
        </mxCell>
        <mxCell id="Iyl1IDhOwi-nhxQjmKdL-141" value="(1,N)" style="text;html=1;align=center;verticalAlign=middle;whiteSpace=wrap;rounded=0;" parent="1" vertex="1">
          <mxGeometry x="412.5" y="2495" width="60" height="30" as="geometry" />
        </mxCell>
        <mxCell id="Iyl1IDhOwi-nhxQjmKdL-142" value="(1,1)" style="text;html=1;align=center;verticalAlign=middle;whiteSpace=wrap;rounded=0;" parent="1" vertex="1">
          <mxGeometry x="412.5" y="2410" width="60" height="30" as="geometry" />
        </mxCell>
        <mxCell id="Iyl1IDhOwi-nhxQjmKdL-143" value="(1,1)" style="text;html=1;align=center;verticalAlign=middle;whiteSpace=wrap;rounded=0;" parent="1" vertex="1">
          <mxGeometry x="415" y="2320" width="60" height="30" as="geometry" />
        </mxCell>
        <mxCell id="Iyl1IDhOwi-nhxQjmKdL-144" value="(1,1)" style="text;html=1;align=center;verticalAlign=middle;whiteSpace=wrap;rounded=0;" parent="1" vertex="1">
          <mxGeometry x="360" y="2480" width="60" height="30" as="geometry" />
        </mxCell>
        <mxCell id="Iyl1IDhOwi-nhxQjmKdL-145" value="(1,N)" style="text;html=1;align=center;verticalAlign=middle;whiteSpace=wrap;rounded=0;" parent="1" vertex="1">
          <mxGeometry x="152.5" y="2520" width="60" height="30" as="geometry" />
        </mxCell>
        <mxCell id="JWuZfUgD4EZI2BWEqnzL-1" value="Cliente" style="whiteSpace=wrap;html=1;align=center;" vertex="1" parent="1">
          <mxGeometry x="80" y="2790" width="100" height="40" as="geometry" />
        </mxCell>
        <mxCell id="JWuZfUgD4EZI2BWEqnzL-2" value="Ejercicio 20-03" style="text;html=1;align=center;verticalAlign=middle;whiteSpace=wrap;rounded=0;fontSize=15;" vertex="1" parent="1">
          <mxGeometry x="-127.5" y="2680" width="140" height="30" as="geometry" />
        </mxCell>
      </root>
    </mxGraphModel>
  </diagram>
</mxfile>
